<?xml version="1.0" standalone="no"?>
<!DOCTYPE svg PUBLIC "-//W3C//DTD SVG 20010904//EN"
 "http://www.w3.org/TR/2001/REC-SVG-20010904/DTD/svg10.dtd">
<svg version="1.0" xmlns="http://www.w3.org/2000/svg"
 width="180.000000pt" height="180.000000pt" viewBox="0 0 180.000000 180.000000"
 preserveAspectRatio="xMidYMid meet">

<g transform="translate(0.000000,180.000000) scale(0.100000,-0.100000)"
fill="#000000" stroke="none">
<path d="M105 1781 c-48 -22 -69 -44 -90 -94 -13 -32 -15 -134 -15 -789 0
-709 2 -755 19 -793 22 -48 44 -69 94 -90 32 -13 134 -15 789 -15 709 0 755 2
793 19 48 22 69 44 90 94 13 32 15 134 15 787 0 653 -2 755 -15 787 -21 50
-42 72 -90 94 -38 18 -84 19 -795 19 -711 0 -757 -1 -795 -19z m900 -356 c111
-32 190 -86 225 -155 43 -84 43 -215 1 -298 -27 -53 -101 -116 -161 -138 -53
-19 -61 -29 -32 -38 48 -16 83 -72 125 -202 l42 -129 37 -9 c29 -7 44 -5 79
12 39 19 45 20 59 7 13 -14 12 -18 -15 -40 -63 -52 -135 -80 -218 -84 -45 -2
-89 2 -106 9 -39 16 -76 58 -89 100 -90 300 -96 310 -179 310 l-43 0 2 -167 3
-168 63 -3 c61 -3 62 -3 62 -32 l0 -30 -225 0 -225 0 0 30 c0 29 2 30 45 30
l45 0 0 480 0 480 -45 0 c-44 0 -45 1 -45 31 l0 31 268 -5 c210 -4 280 -8 327
-22z"/>
<path d="M735 1379 c-3 -8 -4 -131 -3 -274 l3 -260 32 -3 c85 -8 192 54 235
137 23 44 28 66 28 125 0 127 -46 208 -144 256 -57 27 -144 38 -151 19z"/>
</g>
</svg>
